{
	"asset":{
		"generator":"Khronos glTF Blender I/O v3.6.28",
		"version":"2.0"
	},
	"scene":0,
	"scenes":[
		{
			"name":"Scene",
			"nodes":[
				2
			]
		}
	],
	"nodes":[
		{
			"mesh":0,
			"name":"Object_5"
		},
		{
			"children":[
				0
			],
			"name":"mesh_range01_05K_OBJ.obj.cleaner.materialmerger.gles",
			"scale":[
				10.213998794555664,
				10.213998794555664,
				10.213998794555664
			],
			"translation":[
				0.15435656905174255,
				0.06808139383792877,
				-0.6415669322013855
			]
		},
		{
			"children":[
				1
			],
			"name":"Sketchfab_model",
			"rotation":[
				-0.7071069478988647,
				0,
				0,
				0.7071066498756409
			],
			"scale":[
				12.025738716125488,
				12.025735855102539,
				12.025735855102539
			],
			"translation":[
				-6.105501174926758,
				-0.05417978763580322,
				5.855538368225098
			]
		}
	],
	"materials":[
		{
			"doubleSided":true,
			"name":"material_0.001",
			"normalTexture":{
				"index":0
			},
			"pbrMetallicRoughness":{
			    "baseColorTexture": {}
            },
			"splatTexture1":{
			    "index":1
			},
			"splatTexture2": {
			    "index":2
			},
		    "multipleTextures": {
                "tex0": {
                    "index": 3
                },
                "tex1": {
                    "index": 4
                },
                "tex2": {
                    "index": 5
                },
                "tex3": {
                    "index": 6
                },
                "tex4": {
                    "index": 7
                },
                "tex5": {
                    "index": 8
                }
            }
        }
	],
	"meshes":[
		{
			"name":"Object_3.001",
			"primitives":[
				{
					"attributes":{
						"POSITION":0,
						"NORMAL":1,
						"TEXCOORD_0":2,
						"TANGENT":3
					},
					"indices":4,
					"material":0
				}
			]
		}
	],
	"textures":[
		{
			"sampler":0,
			"source":0
		},
		{
			"sampler":0,
			"source":1
		},
		{
			"sampler":0,
			"source":2
		},
		{
			"sampler":0,
			"source":3
		},
		{
			"sampler":0,
			"source":4
		},
		{
			"sampler":0,
			"source":5
		},
		{
			"sampler":0,
			"source":6
		},
		{
			"sampler":0,
			"source":7
		},
		{
			"sampler":0,
			"source":8
		}
	],
	"images":[
		{
			"mimeType":"image/png",
			"name":"NormalTexture",
			"uri":"NormalTexture.png"
		},
		{
			"mimeType":"image/png",
			"name":"SplatMap1",
			"uri":"SplatMap1.png"
		},
		{
			"mimeType":"image/png",
			"name":"SplatMap2",
			"uri":"SplatMap2.png"
		},
		{
			"mimeType":"image/png",
			"name":"Snow",
			"uri":"Snow.png"
		},
		{
			"mimeType":"image/png",
			"name":"HighHill",
			"uri":"HighHill.png"
		},
		{
			"mimeType":"image/png",
			"name":"MidHill",
			"uri":"MidHill.png"
		},
		{
			"mimeType":"image/png",
			"name":"BlackGravel",
			"uri":"BlackGravel.png"
		},
		{
			"mimeType":"image/png",
			"name":"Dolomite",
			"uri":"Dolomite.png"
		},
		{
			"mimeType":"image/png",
			"name":"Grass",
			"uri":"Grass.png"
		}
	],
	"accessors":[
		{
			"bufferView":0,
			"componentType":5126,
			"count":263746,
			"max":[
				1,
				1.0000001192092896,
				0.21702182292938232
			],
			"min":[
				3.725290298461914e-09,
				0,
				0.04295229911804199
			],
			"type":"VEC3"
		},
		{
			"bufferView":1,
			"componentType":5126,
			"count":263746,
			"type":"VEC3"
		},
		{
			"bufferView":2,
			"componentType":5126,
			"count":263746,
			"type":"VEC2"
		},
		{
			"bufferView":3,
			"componentType":5126,
			"count":263746,
			"type":"VEC4"
		},
		{
			"bufferView":4,
			"componentType":5125,
			"count":1572864,
			"type":"SCALAR"
		}
	],
	"bufferViews":[
		{
			"buffer":0,
			"byteLength":3164952,
			"byteOffset":0,
			"target":34962
		},
		{
			"buffer":0,
			"byteLength":3164952,
			"byteOffset":3164952,
			"target":34962
		},
		{
			"buffer":0,
			"byteLength":2109968,
			"byteOffset":6329904,
			"target":34962
		},
		{
			"buffer":0,
			"byteLength":4219936,
			"byteOffset":8439872,
			"target":34962
		},
		{
			"buffer":0,
			"byteLength":6291456,
			"byteOffset":12659808,
			"target":34963
		}
	],
	"samplers":[
		{
			"magFilter":9729,
			"minFilter":9987
		}
	],
	"buffers":[
		{
			"byteLength":18951264,
			"uri":"scene.bin"
		}
	]
}
