{
	"asset":{
		"generator":"Khronos glTF Blender I/O v3.6.28",
		"version":"2.0"
	},
	"extensionsUsed":[
		"KHR_materials_specular",
		"KHR_materials_ior"
	],
	"scene":0,
	"scenes":[
		{
			"name":"Scene",
			"nodes":[
				38
			]
		}
	],
	"nodes":[
		{
			"name":"mixamorig:LeftToe_End",
			"translation":[
				0,
				16.883817672729492,
				0
			]
		},
		{
			"children":[
				0
			],
			"name":"mixamorig:LeftToeBase",
			"rotation":[
				0.38699549436569214,
				0,
				0,
				0.922081708908081
			],
			"translation":[
				0,
				21.28800392150879,
				-5.6827357184374705e-06
			]
		},
		{
			"children":[
				1
			],
			"name":"mixamorig:LeftFoot",
			"rotation":[
				0.4137096405029297,
				0,
				0,
				0.9104089140892029
			],
			"translation":[
				0,
				34.40932846069336,
				0
			]
		},
		{
			"children":[
				2
			],
			"name":"mixamorig:LeftLeg",
			"rotation":[
				-0.05907345563173294,
				0,
				0,
				0.9982536435127258
			],
			"translation":[
				0,
				35.949668884277344,
				0
			]
		},
		{
			"children":[
				3
			],
			"name":"mixamorig:LeftUpLeg",
			"rotation":[
				0,
				0.020608743652701378,
				0.9997876882553101,
				4.511412328156439e-07
			],
			"translation":[
				13.655963897705078,
				-7.1352458000183105,
				0.12969468533992767
			]
		},
		{
			"name":"mixamorig:RightToe_End",
			"translation":[
				0,
				16.883819580078125,
				0
			]
		},
		{
			"children":[
				5
			],
			"name":"mixamorig:RightToeBase",
			"rotation":[
				0.3869955539703369,
				0,
				0,
				0.9220815896987915
			],
			"translation":[
				0,
				21.288005828857422,
				0
			]
		},
		{
			"children":[
				6
			],
			"name":"mixamorig:RightFoot",
			"rotation":[
				0.4137096107006073,
				0,
				0,
				0.9104089140892029
			],
			"translation":[
				0,
				34.40932846069336,
				0
			]
		},
		{
			"children":[
				7
			],
			"name":"mixamorig:RightLeg",
			"rotation":[
				-0.05907347798347473,
				0,
				0,
				0.9982536435127258
			],
			"translation":[
				0,
				35.949668884277344,
				0
			]
		},
		{
			"children":[
				8
			],
			"name":"mixamorig:RightUpLeg",
			"rotation":[
				0,
				0.020608743652701378,
				0.9997876882553101,
				1.1930800383197493e-06
			],
			"translation":[
				-13.655984878540039,
				-7.1352009773254395,
				0.12969805300235748
			]
		},
		{
			"name":"mixamorig:LeftHand",
			"translation":[
				0,
				26.753419876098633,
				0
			]
		},
		{
			"children":[
				10
			],
			"name":"mixamorig:LeftForeArm",
			"rotation":[
				-8.569922101742122e-06,
				0,
				0.027628885582089424,
				0.9996183514595032
			],
			"translation":[
				0,
				26.415098190307617,
				2.5410963644389994e-05
			]
		},
		{
			"children":[
				11
			],
			"name":"mixamorig:LeftArm",
			"rotation":[
				0.05737432464957237,
				0.00010699210542952642,
				-0.0018615395529195666,
				0.9983510971069336
			],
			"translation":[
				0,
				18.035505294799805,
				1.1962372809648514e-05
			]
		},
		{
			"children":[
				12
			],
			"name":"mixamorig:LeftShoulder",
			"rotation":[
				0.4582119882106781,
				0.5412876605987549,
				-0.4824559986591339,
				0.5140872001647949
			],
			"translation":[
				9.553567886352539,
				16.06536865234375,
				-5.227829933166504
			]
		},
		{
			"name":"mixamorig:HeadTop_End",
			"translation":[
				0,
				20.493927001953125,
				-0.282504141330719
			]
		},
		{
			"children":[
				14
			],
			"name":"mixamorig:Head",
			"translation":[
				0,
				8.81732177734375,
				6.102616786956787
			]
		},
		{
			"children":[
				15
			],
			"name":"mixamorig:Neck",
			"translation":[
				-0.011927121318876743,
				24.670639038085938,
				2.028102397918701
			]
		},
		{
			"name":"mixamorig:RightHandIndex4",
			"translation":[
				0,
				6.769720077514648,
				-1.0816380381584167e-05
			]
		},
		{
			"children":[
				17
			],
			"name":"mixamorig:RightHandIndex3",
			"rotation":[
				0.04527628794312477,
				-0.0006926233181729913,
				-0.015276645310223103,
				0.9988575577735901
			],
			"translation":[
				0,
				7.4893670082092285,
				8.51509776111925e-06
			]
		},
		{
			"children":[
				18
			],
			"name":"mixamorig:RightHandIndex2",
			"translation":[
				0,
				7.514394283294678,
				7.130545782274567e-06
			]
		},
		{
			"children":[
				19
			],
			"name":"mixamorig:RightHandIndex1",
			"rotation":[
				7.067472324706614e-06,
				0,
				0,
				1
			],
			"translation":[
				8.654241561889648,
				18.447792053222656,
				-1.4796721935272217
			]
		},
		{
			"name":"mixamorig:RightHandPinky4",
			"translation":[
				9.80994082055986e-06,
				7.092954635620117,
				0
			]
		},
		{
			"children":[
				21
			],
			"name":"mixamorig:RightHandPinky3",
			"translation":[
				-2.1242929506115615e-05,
				7.078901290893555,
				0
			]
		},
		{
			"children":[
				22
			],
			"name":"mixamorig:RightHandPinky2",
			"translation":[
				-5.886529834242538e-06,
				7.0442399978637695,
				-2.6580228222883306e-06
			]
		},
		{
			"children":[
				23
			],
			"name":"mixamorig:RightHandPinky1",
			"rotation":[
				4.804487161891302e-06,
				0.707106351852417,
				5.1874058044631965e-06,
				0.7071071863174438
			],
			"translation":[
				-10.003090858459473,
				17.50775909423828,
				0.4779391288757324
			]
		},
		{
			"name":"mixamorig:RightHandThumb4",
			"translation":[
				0,
				8.025289535522461,
				-1.5735626220703125e-05
			]
		},
		{
			"children":[
				25
			],
			"name":"mixamorig:RightHandThumb3",
			"rotation":[
				-0.04723072052001953,
				-0.010479292832314968,
				0.07085370272397995,
				0.9963127970695496
			],
			"translation":[
				0,
				8.498753547668457,
				1.6689300537109375e-05
			]
		},
		{
			"children":[
				26
			],
			"name":"mixamorig:RightHandThumb2",
			"rotation":[
				-0.03930841386318207,
				-0.006960649974644184,
				0.11608852446079254,
				0.9924363493919373
			],
			"translation":[
				3.337860107421875e-06,
				10.473016738891602,
				-2.5510787963867188e-05
			]
		},
		{
			"children":[
				27
			],
			"name":"mixamorig:RightHandThumb1",
			"rotation":[
				0.21345721185207367,
				-0.03587369993329048,
				-0.37311750650405884,
				0.9021820425987244
			],
			"translation":[
				6.16347599029541,
				2.4922776222229004,
				4.446357727050781
			]
		},
		{
			"children":[
				20,
				24,
				28
			],
			"name":"mixamorig:RightHand",
			"translation":[
				0,
				26.753429412841797,
				-2.7399719328968786e-06
			]
		},
		{
			"children":[
				29
			],
			"name":"mixamorig:RightForeArm",
			"rotation":[
				-1.204431100632064e-05,
				0,
				-0.02762887068092823,
				0.9996182918548584
			],
			"translation":[
				0,
				26.415103912353516,
				3.022660530405119e-05
			]
		},
		{
			"children":[
				30
			],
			"name":"mixamorig:RightArm",
			"rotation":[
				0.057640787214040756,
				-0.000100768702395726,
				0.0017446506535634398,
				0.9983358979225159
			],
			"translation":[
				0,
				17.955059051513672,
				-4.225876182317734e-06
			]
		},
		{
			"children":[
				31
			],
			"name":"mixamorig:RightShoulder",
			"rotation":[
				0.4580201208591461,
				-0.5414748191833496,
				0.4823670983314514,
				0.5141445994377136
			],
			"translation":[
				-9.553568840026855,
				16.06536865234375,
				-5.227829933166504
			]
		},
		{
			"children":[
				13,
				16,
				32
			],
			"name":"mixamorig:Spine2",
			"rotation":[
				0.03522346168756485,
				-7.730135985184461e-05,
				-0.0008284169598482549,
				0.9993791580200195
			],
			"translation":[
				0,
				13.020566940307617,
				0
			]
		},
		{
			"children":[
				33
			],
			"name":"mixamorig:Spine1",
			"rotation":[
				-0.04392384737730026,
				1.0141500752069987e-05,
				9.932627290254459e-05,
				0.9990348815917969
			],
			"translation":[
				0,
				13.063338279724121,
				0
			]
		},
		{
			"children":[
				34
			],
			"name":"mixamorig:Spine",
			"rotation":[
				0.008707105182111263,
				0.00010003482748288661,
				0.000724493816960603,
				0.9999618530273438
			],
			"translation":[
				1.7817566913436167e-05,
				10.763877868652344,
				1.243516445159912
			]
		},
		{
			"children":[
				4,
				9,
				35
			],
			"name":"mixamorig:Hips",
			"rotation":[
				-0.70710688829422,
				0,
				0,
				0.7071066498756409
			],
			"translation":[
				0,
				4.552499294281006,
				-92.55486297607422
			]
		},
		{
			"mesh":0,
			"name":"MutantMesh"
		},
		{
			"children":[
				36,
				37
			],
			"name":"Armature",
			"rotation":[
				0.70710688829422,
				0,
				0,
				0.7071066498756409
			],
			"scale":[
				0.009999999776482582,
				0.010000000707805157,
				0.010000000707805157
			]
		}
	],
	"materials":[
		{
			"doubleSided":true,
			"extensions":{
				"KHR_materials_specular":{
					"specularColorFactor":[
						2.371357614441398,
						2.371357614441398,
						2.371357614441398
					]
				},
				"KHR_materials_ior":{
					"ior":1.4500000476837158
				}
			},
			"name":"mutant_M",
			"normalTexture":{
				"index":0
			},
			"pbrMetallicRoughness":{
				"baseColorTexture":{
					"index":1
				},
				"metallicFactor":0,
				"roughnessFactor":0.7519305348396301
			}
		}
	],
	"meshes":[
		{
			"name":"MutantMesh",
			"primitives":[
				{
					"attributes":{
						"POSITION":0,
						"NORMAL":1,
						"TEXCOORD_0":2,
						"TEXCOORD_1":3,
						"TEXCOORD_2":4,
						"TEXCOORD_3":5,
						"TANGENT":6
					},
					"indices":7,
					"material":0
				}
			]
		}
	],
	"textures":[
		{
			"sampler":0,
			"source":0
		},
		{
			"sampler":0,
			"source":1
		}
	],
	"images":[
		{
			"mimeType":"image/png",
			"name":"Mutant_normal",
			"uri":"Mutant_normal.png"
		},
		{
			"mimeType":"image/png",
			"name":"Mutant_diffuse",
			"uri":"Mutant_diffuse.png"
		}
	],
	"accessors":[
		{
			"bufferView":0,
			"componentType":5126,
			"count":6961,
			"max":[
				149.10133361816406,
				36.30488204956055,
				0.5941055417060852
			],
			"min":[
				-125.15182495117188,
				-34.20340347290039,
				-185.54022216796875
			],
			"type":"VEC3"
		},
		{
			"bufferView":1,
			"componentType":5126,
			"count":6961,
			"type":"VEC3"
		},
		{
			"bufferView":2,
			"componentType":5126,
			"count":6961,
			"type":"VEC2"
		},
		{
			"bufferView":3,
			"componentType":5126,
			"count":6961,
			"type":"VEC2"
		},
		{
			"bufferView":4,
			"componentType":5126,
			"count":6961,
			"type":"VEC2"
		},
		{
			"bufferView":5,
			"componentType":5126,
			"count":6961,
			"type":"VEC2"
		},
		{
			"bufferView":6,
			"componentType":5126,
			"count":6961,
			"type":"VEC4"
		},
		{
			"bufferView":7,
			"componentType":5123,
			"count":33813,
			"type":"SCALAR"
		}
	],
	"bufferViews":[
		{
			"buffer":0,
			"byteLength":83532,
			"byteOffset":0,
			"target":34962
		},
		{
			"buffer":0,
			"byteLength":83532,
			"byteOffset":83532,
			"target":34962
		},
		{
			"buffer":0,
			"byteLength":55688,
			"byteOffset":167064,
			"target":34962
		},
		{
			"buffer":0,
			"byteLength":55688,
			"byteOffset":222752,
			"target":34962
		},
		{
			"buffer":0,
			"byteLength":55688,
			"byteOffset":278440,
			"target":34962
		},
		{
			"buffer":0,
			"byteLength":55688,
			"byteOffset":334128,
			"target":34962
		},
		{
			"buffer":0,
			"byteLength":111376,
			"byteOffset":389816,
			"target":34962
		},
		{
			"buffer":0,
			"byteLength":67626,
			"byteOffset":501192,
			"target":34963
		}
	],
	"samplers":[
		{
			"magFilter":9729,
			"minFilter":9987
		}
	],
	"buffers":[
		{
			"byteLength":568820,
			"uri":"scene.bin"
		}
	]
}
